<?xml version="1.0" encoding="utf-8"?>
<!-- Generator: Adobe Illustrator 26.2.1, SVG Export Plug-In . SVG Version: 6.00 Build 0)  -->
<svg version="1.1" id="Layer_1" xmlns="http://www.w3.org/2000/svg" xmlns:xlink="http://www.w3.org/1999/xlink" x="0px" y="0px"
	 viewBox="0 0 600 600" style="enable-background:new 0 0 600 600;" xml:space="preserve">
<style type="text/css">
	.st0{fill:#FFFFFF;stroke:#000000;stroke-miterlimit:10;}
	.st1{fill:none;stroke:#000000;stroke-miterlimit:10;}
</style>
<rect x="77.5" y="61.5" class="st0" width="222" height="222"/>
<rect x="208.5" y="204.5" class="st0" width="209" height="209"/>
<rect x="377.5" y="16.5" class="st0" width="126" height="126"/>
<rect x="74.5" y="457.5" class="st0" width="112" height="112"/>
<line class="st1" x1="403.5" y1="519.5" x2="252.5" y2="519.5"/>
<line class="st1" x1="260.5" y1="355.5" x2="260.5" y2="482.5"/>
<polyline class="st1" points="334.5,51.5 334.5,160.5 495.5,160.5 495.5,202.5 471.5,202.5 471.5,422.5 512.5,422.5 512.5,377.5 
	489.5,377.5 489.5,305.5 538.5,305.5 538.5,336.5 301.5,336.5 301.5,279.5 232.5,279.5 232.5,157.5 161.5,157.5 161.5,242.5 
	170.5,242.5 170.5,187.5 176.5,187.5 176.5,218.5 116.5,218.5 "/>
</svg>
