<?xml version="1.0" encoding="utf-8"?>
<!-- Generator: Adobe Illustrator 26.2.1, SVG Export Plug-In . SVG Version: 6.00 Build 0)  -->
<svg version="1.1" id="Layer_1" xmlns="http://www.w3.org/2000/svg" xmlns:xlink="http://www.w3.org/1999/xlink" x="0px" y="0px"
	 viewBox="0 0 73 86" style="enable-background:new 0 0 73 86;" xml:space="preserve">
<path d="M59.23,10.07C41.11-5.25-1.56,2.92,3.13,32.09c0.6,3.76,5.24,5.78,8.61,4.89c3.98-1.05,5.49-4.9,4.89-8.61
	c-1.45-9.02,12.33-11.71,18.49-11.89c7.74-0.23,17.81,2.56,19.46,11.41c1.71,9.16-8.21,9.59-14.13,12.05
	c-10.2,4.24-11.76,14.9-10.51,24.71c0.37,2.92,1.89,5.47,4.46,6.51c-6.17,2.5-5.28,13.49,2.72,13.49c8.08,0,8.92-11.26,2.49-13.58
	c2.53-1.1,4.69-3.63,4.33-6.42c-0.37-2.89-1.42-7.35,0.05-10.12c1.26-2.37,4.45-2.42,6.79-3.03c5.72-1.5,10.51-4.5,13.93-9.37
	C71.99,31.81,68.48,17.9,59.23,10.07z"/>
</svg>
